<svg xmlns="http://www.w3.org/2000/svg" xmlns:xlink="http://www.w3.org/1999/xlink" viewBox="0 0 48 48"><defs><style>.cls-1{fill:url(#linear-gradient);}.cls-2{fill:url(#linear-gradient-2);}.cls-3{fill:url(#linear-gradient-3);}.cls-4{fill:url(#linear-gradient-4);}.cls-5{fill:url(#linear-gradient-5);}.cls-6{fill:url(#linear-gradient-6);}.cls-7{fill:url(#linear-gradient-7);}.cls-8{fill:url(#linear-gradient-8);}.cls-9{fill:url(#linear-gradient-9);}.cls-10{fill:url(#linear-gradient-10);}.cls-11{fill:url(#linear-gradient-11);}.cls-12{fill:url(#linear-gradient-12);}.cls-13{fill:url(#linear-gradient-13);}.cls-14{fill:url(#linear-gradient-14);}.cls-15{fill:url(#linear-gradient-15);}.cls-16{fill:url(#linear-gradient-16);}.cls-17{fill:url(#linear-gradient-17);}.cls-18{fill:url(#linear-gradient-18);}.cls-19{fill:url(#linear-gradient-19);}.cls-20{fill:url(#linear-gradient-20);}.cls-21{fill:url(#linear-gradient-21);}.cls-22{fill:url(#linear-gradient-22);}.cls-23{fill:url(#linear-gradient-23);}.cls-24{fill:url(#linear-gradient-24);}.cls-25{fill:url(#linear-gradient-25);}.cls-26{fill:url(#linear-gradient-26);}.cls-27{fill:url(#linear-gradient-27);}.cls-28{fill:url(#linear-gradient-28);}.cls-29{fill:url(#linear-gradient-29);}.cls-30{fill:url(#linear-gradient-30);}.cls-31{fill:url(#linear-gradient-31);}.cls-32{fill:url(#linear-gradient-32);}.cls-33{fill:url(#linear-gradient-33);}.cls-34{fill:url(#linear-gradient-34);}</style><linearGradient id="linear-gradient" x1="10.73" y1="-5.83" x2="10.73" y2="15.35" gradientUnits="userSpaceOnUse"><stop offset="0" stop-color="#f3c57a"/><stop offset="0.49" stop-color="#f39369"/><stop offset="1" stop-color="#e94867"/></linearGradient><linearGradient id="linear-gradient-2" x1="10.37" y1="17.08" x2="10.37" y2="6.29" xlink:href="#linear-gradient"/><linearGradient id="linear-gradient-3" x1="534.74" y1="-5.83" x2="534.74" y2="15.35" gradientTransform="matrix(-1, 0, 0, 1, 572, 0)" xlink:href="#linear-gradient"/><linearGradient id="linear-gradient-4" x1="534.37" y1="17.08" x2="534.37" y2="6.29" gradientTransform="matrix(-1, 0, 0, 1, 572, 0)" xlink:href="#linear-gradient"/><linearGradient id="linear-gradient-5" x1="24" y1="-20.17" x2="24" y2="52.04" xlink:href="#linear-gradient"/><linearGradient id="linear-gradient-6" x1="24" y1="95.17" x2="24" y2="-33.56" xlink:href="#linear-gradient"/><linearGradient id="linear-gradient-7" x1="23.98" y1="22.83" x2="23.98" y2="54.76" xlink:href="#linear-gradient"/><linearGradient id="linear-gradient-8" x1="44.88" y1="25" x2="44.88" y2="57.08" xlink:href="#linear-gradient"/><linearGradient id="linear-gradient-9" x1="3.13" y1="25" x2="3.13" y2="57.08" xlink:href="#linear-gradient"/><linearGradient id="linear-gradient-10" x1="24" y1="41.9" x2="24" y2="29.68" xlink:href="#linear-gradient"/><linearGradient id="linear-gradient-11" x1="24" y1="45.09" x2="24" y2="33.33" xlink:href="#linear-gradient"/><linearGradient id="linear-gradient-12" x1="24" y1="37.7" x2="24" y2="21.67" xlink:href="#linear-gradient"/><linearGradient id="linear-gradient-13" x1="24" y1="38.53" x2="24" y2="28.89" xlink:href="#linear-gradient"/><linearGradient id="linear-gradient-14" x1="22.41" y1="38.53" x2="22.41" y2="28.89" xlink:href="#linear-gradient"/><linearGradient id="linear-gradient-15" x1="1146.59" y1="38.53" x2="1146.59" y2="28.89" gradientTransform="matrix(-1, 0, 0, 1, 1172.18, 0)" xlink:href="#linear-gradient"/><linearGradient id="linear-gradient-16" x1="22.41" y1="32.75" x2="22.41" y2="41.07" gradientUnits="userSpaceOnUse"><stop offset="0" stop-color="#fff"/><stop offset="0.52" stop-color="#cce2e6"/><stop offset="1" stop-color="#8fa1bb"/></linearGradient><linearGradient id="linear-gradient-17" x1="1146.59" x2="1146.59" y2="41.07" gradientTransform="matrix(-1, 0, 0, 1, 1172.18, 0)" xlink:href="#linear-gradient-16"/><linearGradient id="linear-gradient-18" x1="24" y1="25.01" x2="24" y2="15.6" xlink:href="#linear-gradient"/><linearGradient id="linear-gradient-19" x1="24" y1="32.61" x2="24" y2="9.55" xlink:href="#linear-gradient"/><linearGradient id="linear-gradient-20" x1="24" y1="44.6" x2="24" y2="17.01" xlink:href="#linear-gradient"/><linearGradient id="linear-gradient-21" x1="24" y1="38.48" x2="24" y2="19.08" gradientUnits="userSpaceOnUse"><stop offset="0" stop-color="#273a9b"/><stop offset="0.56" stop-color="#202f65"/><stop offset="1" stop-color="#021e2f"/></linearGradient><linearGradient id="linear-gradient-22" x1="23.99" y1="41.75" x2="23.99" y2="22.64" xlink:href="#linear-gradient-21"/><linearGradient id="linear-gradient-23" x1="16.48" y1="34.84" x2="16.48" y2="19.95" xlink:href="#linear-gradient"/><linearGradient id="linear-gradient-24" x1="19.06" y1="37" x2="19.06" y2="22.1" xlink:href="#linear-gradient"/><linearGradient id="linear-gradient-25" x1="15.94" y1="37.51" x2="15.94" y2="22.62" xlink:href="#linear-gradient"/><linearGradient id="linear-gradient-26" x1="672.46" y1="34.84" x2="672.46" y2="19.95" gradientTransform="matrix(-1, 0, 0, 1, 703.98, 0)" xlink:href="#linear-gradient"/><linearGradient id="linear-gradient-27" x1="675.04" y1="37" x2="675.04" y2="22.1" gradientTransform="matrix(-1, 0, 0, 1, 703.98, 0)" xlink:href="#linear-gradient"/><linearGradient id="linear-gradient-28" x1="671.92" y1="37.51" x2="671.92" y2="22.62" gradientTransform="matrix(-1, 0, 0, 1, 703.98, 0)" xlink:href="#linear-gradient"/><linearGradient id="linear-gradient-29" x1="12.36" y1="49.5" x2="12.36" y2="13.8" xlink:href="#linear-gradient"/><linearGradient id="linear-gradient-30" x1="530.87" y1="49.5" x2="530.87" y2="13.8" gradientTransform="matrix(-1, 0, 0, 1, 566.51, 0)" xlink:href="#linear-gradient"/><linearGradient id="linear-gradient-31" x1="15" y1="36.25" x2="15" y2="27.56" xlink:href="#linear-gradient-21"/><linearGradient id="linear-gradient-32" x1="14.25" y1="23.71" x2="14.25" y2="20.96" xlink:href="#linear-gradient-21"/><linearGradient id="linear-gradient-33" x1="33" y1="36.25" x2="33" y2="27.56" xlink:href="#linear-gradient-21"/><linearGradient id="linear-gradient-34" x1="32.25" y1="23.71" x2="32.25" y2="20.96" xlink:href="#linear-gradient-21"/></defs><title>beaver, animal, wildlife, wild, river</title><g id="ART"><path class="cls-1" d="M10.11,3.1A6.45,6.45,0,0,0,8.93,3,2.9,2.9,0,0,0,6,5.7a6.49,6.49,0,0,0,5.32,6.94,6.42,6.42,0,0,0,3.45-.32,6.46,6.46,0,0,0,.54-4A6.55,6.55,0,0,0,10.11,3.1Z"/><path class="cls-2" d="M14.54,11.65A6.55,6.55,0,0,0,9.31,6.48a6.45,6.45,0,0,0-1.18-.1,3,3,0,0,0-2,1,.15.15,0,0,0,0,.14h0a6.27,6.27,0,0,0,3,4.38,6.54,6.54,0,0,0,5.45.53A6.52,6.52,0,0,0,14.54,11.65Z"/><path class="cls-3" d="M37.89,3.1A6.45,6.45,0,0,1,39.07,3,2.9,2.9,0,0,1,42,5.7a6.49,6.49,0,0,1-5.32,6.94,6.42,6.42,0,0,1-3.45-.32,6.46,6.46,0,0,1-.54-4A6.55,6.55,0,0,1,37.89,3.1Z"/><path class="cls-4" d="M33.46,11.65a6.55,6.55,0,0,1,5.23-5.17,6.45,6.45,0,0,1,1.18-.1,3,3,0,0,1,2,1,.15.15,0,0,1,0,.14h0a6.27,6.27,0,0,1-3,4.38,6.54,6.54,0,0,1-5.45.53A6.52,6.52,0,0,1,33.46,11.65Z"/><path class="cls-5" d="M45,28.53C45,40.13,35.6,45,24,45S3,40.13,3,28.53,12.4,3,24,3,45,16.94,45,28.53Z"/><path class="cls-6" d="M45,28.53C45,40.13,35.6,45,24,45S3,40.13,3,28.53,12.4,9,24,9,45,16.94,45,28.53Z"/><path class="cls-7" d="M24.17,41.67C13.75,41.67,5,40.42,3.3,31.77,4.91,41,13.55,45,24,45s18.94-3.89,20.66-13C42.92,40.45,34.48,41.67,24.17,41.67Z"/><path class="cls-8" d="M44.87,30.77c0-.06,0-.12,0-.18S44.88,30.71,44.87,30.77Z"/><path class="cls-9" d="M3.17,31c0-.17,0-.34-.07-.52C3.12,30.65,3.15,30.82,3.17,31Z"/><path class="cls-10" d="M29.48,26.77A10.48,10.48,0,0,0,24,28.19a10.48,10.48,0,0,0-5.48-1.42c-4,0-6.9,1.9-6.9,4.56s3.23,4.81,7.22,4.81a9.92,9.92,0,0,0,3.89-.76,3.26,3.26,0,0,1,2.54,0,9.92,9.92,0,0,0,3.89.76c4,0,7.22-2.15,7.22-4.81S33.47,26.77,29.48,26.77Z"/><path class="cls-11" d="M30.19,33.75c0,2.46-2.77,6.75-6.19,6.75s-6.19-4.29-6.19-6.75S20.58,29.3,24,29.3,30.19,31.29,30.19,33.75Z"/><ellipse class="cls-12" cx="24" cy="34.01" rx="6.19" ry="4.28"/><path class="cls-13" d="M24.08,29.74l-.08,0-.08,0c-3.38,0-6.11,1.93-6.11,4.27a3.3,3.3,0,0,0,.82,2.09l.22,0a9.92,9.92,0,0,0,3.89-.76,3.25,3.25,0,0,1,2.54,0,9.92,9.92,0,0,0,3.89.76l.22,0A3.3,3.3,0,0,0,30.19,34C30.19,31.67,27.46,29.77,24.08,29.74Z"/><path class="cls-14" d="M24,33H20.83v2.41a1.41,1.41,0,0,0,1.37,1.42h.22c.29,0,.57,0,.84,0A.82.82,0,0,0,24,36Z"/><path class="cls-15" d="M24,33h3.17v2.41a1.41,1.41,0,0,1-1.37,1.42h-.22c-.29,0-.57,0-.84,0A.82.82,0,0,1,24,36Z"/><path class="cls-16" d="M24,31.74H20.83v2.41a1.41,1.41,0,0,0,1.37,1.42h.22c.29,0,.57,0,.84,0a.82.82,0,0,0,.74-.82Z"/><path class="cls-17" d="M24,31.74h3.17v2.41a1.41,1.41,0,0,1-1.37,1.42h-.22c-.29,0-.57,0-.84,0a.82.82,0,0,1-.74-.82Z"/><path class="cls-18" d="M29.48,25A10.48,10.48,0,0,0,24,26.47,10.48,10.48,0,0,0,18.52,25c-4,0-6.9,1.9-6.9,4.56s3.23,4.81,7.22,4.81a9.92,9.92,0,0,0,3.89-.76,3.26,3.26,0,0,1,2.54,0,9.92,9.92,0,0,0,3.89.76c4,0,7.22-2.15,7.22-4.81S33.47,25,29.48,25Z"/><path class="cls-19" d="M29.48,26.66A10.48,10.48,0,0,0,24,28.08a10.48,10.48,0,0,0-5.48-1.42,9.25,9.25,0,0,0-4.68,1.12,3,3,0,0,0-.27,5.09,9.11,9.11,0,0,0,5.28,1.54,9.92,9.92,0,0,0,3.89-.76,3.25,3.25,0,0,1,2.54,0,9.92,9.92,0,0,0,3.89.76,9.11,9.11,0,0,0,5.28-1.54,3,3,0,0,0-.27-5.09A9.25,9.25,0,0,0,29.48,26.66Z"/><path class="cls-20" d="M29.24,26.55c0,1.41-2.35,7.11-5.24,7.11s-5.24-5.7-5.24-7.11S21.1,24,24,24,29.24,25.14,29.24,26.55Z"/><path class="cls-21" d="M29.24,26.55c0,1.41-2.35,4.24-5.24,4.24S18.76,28,18.76,26.55,21.1,24,24,24,29.24,25.14,29.24,26.55Z"/><path class="cls-22" d="M21.28,26.62a1.66,1.66,0,0,0-.62,2.9A5.4,5.4,0,0,0,24,30.79a5.34,5.34,0,0,0,3.2-1.17,1.69,1.69,0,0,0-.65-3.05A9.85,9.85,0,0,0,24,26.25,9.72,9.72,0,0,0,21.28,26.62Z"/><ellipse class="cls-23" cx="16.48" cy="28.79" rx="0.54" ry="0.51"/><ellipse class="cls-24" cx="19.06" cy="30.94" rx="0.54" ry="0.51"/><ellipse class="cls-25" cx="15.94" cy="31.45" rx="0.54" ry="0.51"/><ellipse class="cls-26" cx="31.52" cy="28.79" rx="0.54" ry="0.51"/><ellipse class="cls-27" cx="28.94" cy="30.94" rx="0.54" ry="0.51"/><ellipse class="cls-28" cx="32.06" cy="31.45" rx="0.54" ry="0.51"/><path class="cls-29" d="M16.5,22.5c0,2.07-4.18,3.75-5.64,3.75S8.22,24.57,8.22,22.5s1.18-3.75,2.64-3.75S16.5,20.43,16.5,22.5Z"/><path class="cls-30" d="M31.5,22.5c0,2.07,4.18,3.75,5.64,3.75s2.64-1.68,2.64-3.75-1.18-3.75-2.64-3.75S31.5,20.43,31.5,22.5Z"/><circle class="cls-31" cx="15" cy="22.5" r="1.5"/><path class="cls-32" d="M15,21a1.5,1.5,0,0,0-1.5,1.5H15Z"/><circle class="cls-33" cx="33" cy="22.5" r="1.5"/><path class="cls-34" d="M33,21a1.5,1.5,0,0,0-1.5,1.5H33Z"/></g></svg>