<?xml version="1.0" standalone="no"?><!DOCTYPE svg PUBLIC "-//W3C//DTD SVG 1.1//EN" "http://www.w3.org/Graphics/SVG/1.1/DTD/svg11.dtd"><svg t="1628233715615" class="icon" viewBox="0 0 1024 1024" version="1.1" xmlns="http://www.w3.org/2000/svg" p-id="13990" xmlns:xlink="http://www.w3.org/1999/xlink" width="128" height="128"><defs><style type="text/css"></style></defs><path d="M465.28 150.506667a73.28 73.28 0 1 0 73.28-73.173334 73.28 73.28 0 0 0-73.28 73.173334zM759.573333 499.946667a205.546667 205.546667 0 0 1-103.04-65.92c-15.04-18.88-26.56-65.92-34.24-140.8a9.493333 9.493333 0 0 0-0.64-3.2 62.933333 62.933333 0 0 0-44.48-32.96 288 288 0 0 0-88.32 0 28.053333 28.053333 0 0 0-3.2 1.066666h-1.173333a42.666667 42.666667 0 0 0-5.546667 2.666667c-15.573333 8.213333-56.533333 36.373333-105.706666 123.413333a407.786667 407.786667 0 0 0-44.053334 157.866667v9.493333a23.36 23.36 0 0 0 22.826667 18.133334 23.893333 23.893333 0 0 0 21.333333-13.76c12.266667-34.133333 40.106667-108.053333 48.426667-130.133334a33.493333 33.493333 0 0 1 7.253333-11.52 285.44 285.44 0 0 1 42.666667-35.84v248.533334a2.88 2.88 0 0 1 0 1.6 507.093333 507.093333 0 0 1-47.36 125.44c-18.88 35.84-55.04 81.813333-96 141.973333a40.426667 40.426667 0 0 0-5.226667 19.52 41.066667 41.066667 0 0 0 9.813334 20.693333 34.026667 34.026667 0 0 0 26.773333 10.666667 30.4 30.4 0 0 0 21.013333-8.213333c0.64 0 0.96-0.96 1.6-1.6 40.96-35.2 71.36-83.84 97.6-128a1274.88 1274.88 0 0 0 70.08-138.666667 6.186667 6.186667 0 0 1 9.92-1.92Q640 744 656.853333 791.466667a500.373333 500.373333 0 0 1 22.4 116.16A28.586667 28.586667 0 0 0 704 934.933333h13.76a32.853333 32.853333 0 0 0 29.76-30.08c-1.28-96.64-13.653333-162.346667-31.253333-198.506666Q688.426667 647.786667 592.853333 554.666667a6.72 6.72 0 0 1-2.24-5.76c4.48-56.32 8.32-81.92 11.2-77.44 40.96 65.6 110.08 78.08 149.333334 80.32a25.6 25.6 0 0 0 26.56-20.16v-0.96a26.346667 26.346667 0 0 0-18.133334-30.72z" fill="#40a9ff" p-id="13991"></path><path d="M112.64 722.026667m32 0l172.906667 0q32 0 32 32l0 0q0 32-32 32l-172.906667 0q-32 0-32-32l0 0q0-32 32-32Z" fill="#40a9ff" p-id="13992"></path><path d="M55.573333 834.986667m32 0l172.906667 0q32 0 32 32l0 0q0 32-32 32l-172.906667 0q-32 0-32-32l0 0q0-32 32-32Z" fill="#40a9ff" p-id="13993"></path></svg>